<svg xmlns="http://www.w3.org/2000/svg" viewBox="0 0 512 512" width="512" height="512">
  <rect width="512" height="512" rx="96" fill="#1C1410"/>
  <rect x="0" y="470" width="512" height="42" rx="0" fill="#e07800"/>
  <!-- fuel drop -->
  <path d="M256 96 C256 96 196 188 196 244 a60 60 0 0 0 120 0 C316 188 256 96 256 96 Z" fill="#D4963A"/>
  <path d="M256 150 C256 150 222 206 222 240 a34 34 0 0 0 68 0 C290 206 256 150 256 150 Z" fill="#1C1410" opacity="0.18"/>
  <!-- ascending analysis bars -->
  <g fill="#e07800">
    <rect x="150" y="372" width="46" height="56" rx="6"/>
    <rect x="214" y="344" width="46" height="84" rx="6"/>
    <rect x="278" y="312" width="46" height="116" rx="6"/>
    <rect x="342" y="356" width="46" height="72" rx="6"/>
  </g>
</svg>
