<svg viewBox="0 0 192 192" xmlns="http://www.w3.org/2000/svg">
  <rect width="192" height="192" fill="#1C1410"/>
  <!-- Clay→ochre gradient bar at bottom -->
  <rect x="0" y="178" width="192" height="14" fill="#C4572A"/>
  <rect x="96" y="178" width="96" height="14" fill="#D4963A"/>
  <!-- Back document (shadow) -->
  <rect x="52" y="44" width="96" height="118" rx="4" fill="#3D2B1A"/>
  <!-- Middle document -->
  <rect x="44" y="36" width="96" height="118" rx="4" fill="#2A1A0E"/>
  <rect x="44" y="36" width="96" height="118" rx="4" fill="none" stroke="#C4572A" stroke-width="1.5"/>
  <!-- Front document -->
  <rect x="36" y="28" width="96" height="118" rx="4" fill="#F5EDDA"/>
  <!-- Document lines -->
  <rect x="50" y="52" width="68" height="5" rx="2" fill="#C4572A"/>
  <rect x="50" y="67" width="56" height="3" rx="1.5" fill="#6B5B4E"/>
  <rect x="50" y="76" width="62" height="3" rx="1.5" fill="#6B5B4E"/>
  <rect x="50" y="85" width="50" height="3" rx="1.5" fill="#6B5B4E"/>
  <!-- Divider -->
  <rect x="50" y="98" width="68" height="1" rx="0.5" fill="#D4C8A8"/>
  <!-- Second section lines -->
  <rect x="50" y="108" width="48" height="3" rx="1.5" fill="#D4963A"/>
  <rect x="50" y="117" width="60" height="3" rx="1.5" fill="#6B5B4E"/>
  <rect x="50" y="126" width="44" height="3" rx="1.5" fill="#6B5B4E"/>
</svg>
