<svg viewBox="0 0 512 512" xmlns="http://www.w3.org/2000/svg">
  <rect width="512" height="512" fill="#1C1410"/>
  <rect x="0" y="475" width="512" height="37" fill="#C4572A"/>
  <rect x="256" y="475" width="256" height="37" fill="#D4963A"/>
  <!-- Back document -->
  <rect x="136" y="116" width="256" height="314" rx="8" fill="#3D2B1A"/>
  <!-- Middle document -->
  <rect x="116" y="96" width="256" height="314" rx="8" fill="#2A1A0E"/>
  <rect x="116" y="96" width="256" height="314" rx="8" fill="none" stroke="#C4572A" stroke-width="3"/>
  <!-- Front document -->
  <rect x="96" y="76" width="256" height="314" rx="8" fill="#F5EDDA"/>
  <!-- Title bar -->
  <rect x="128" y="112" width="192" height="14" rx="4" fill="#C4572A"/>
  <!-- Content lines -->
  <rect x="128" y="140" width="160" height="8" rx="3" fill="#6B5B4E"/>
  <rect x="128" y="156" width="176" height="8" rx="3" fill="#6B5B4E"/>
  <rect x="128" y="172" width="136" height="8" rx="3" fill="#6B5B4E"/>
  <!-- Divider -->
  <rect x="128" y="192" width="192" height="2" rx="1" fill="#D4C8A8"/>
  <!-- Second section -->
  <rect x="128" y="206" width="144" height="8" rx="3" fill="#D4963A"/>
  <rect x="128" y="222" width="168" height="8" rx="3" fill="#6B5B4E"/>
  <rect x="128" y="238" width="120" height="8" rx="3" fill="#6B5B4E"/>
  <rect x="128" y="254" width="152" height="8" rx="3" fill="#6B5B4E"/>
  <!-- Divider -->
  <rect x="128" y="274" width="192" height="2" rx="1" fill="#D4C8A8"/>
  <!-- Third section -->
  <rect x="128" y="288" width="136" height="8" rx="3" fill="#D4963A"/>
  <rect x="128" y="304" width="160" height="8" rx="3" fill="#6B5B4E"/>
  <rect x="128" y="320" width="128" height="8" rx="3" fill="#6B5B4E"/>
</svg>
